<svg width="48" height="48" viewBox="0 0 48 48" fill="none" xmlns="http://www.w3.org/2000/svg">
<g clip-path="url(#clip0_20_114)">
<path d="M34.7176 11.5725L35.4676 13.8225C35.6863 14.5348 36.138 15.1528 36.7501 15.5775L38.6476 16.8525C39.2847 17.2801 39.7558 17.9131 39.9823 18.6461C40.2089 19.3791 40.1773 20.1676 39.8926 20.88L39.1426 22.7025C38.8162 23.5082 38.8162 24.4093 39.1426 25.215L39.8926 26.9925C40.1766 27.6906 40.2171 28.464 40.0075 29.188C39.798 29.9119 39.3506 30.544 38.7376 30.9825L37.0501 32.19C36.4316 32.6296 35.9818 33.2674 35.7751 33.9975L35.1676 36.1275C34.9561 36.8753 34.4908 37.5261 33.8517 37.9681C33.2125 38.4102 32.4394 38.6159 31.6651 38.55L29.8426 38.4C28.9801 38.3284 28.1239 38.5976 27.4576 39.15L25.7026 40.5675C25.1043 41.0554 24.3559 41.3219 23.5839 41.3219C22.8118 41.3219 22.0635 41.0554 21.4651 40.5675L19.9651 39.3375C19.3639 38.8476 18.6107 38.5824 17.8351 38.5875H15.2026C14.4451 38.5894 13.7093 38.3336 13.1164 37.862C12.5235 37.3904 12.1087 36.7311 11.9401 35.9925L11.4601 33.9525C11.2725 33.1294 10.7792 32.4082 10.0801 31.935L8.46764 30.75C7.85729 30.3349 7.40186 29.7291 7.17251 29.0275C6.94316 28.3258 6.95288 27.568 7.20014 26.8725L7.95014 24.8175C8.22764 24.07 8.22764 23.2476 7.95014 22.5L7.27514 20.7C7.00522 19.9851 6.98825 19.1992 7.22704 18.4733C7.46583 17.7474 7.94601 17.1251 8.58764 16.71L10.3651 15.5625C11.0524 15.118 11.5537 14.4379 11.7751 13.65L12.3001 11.76C12.5105 11.0074 12.9771 10.3521 13.6194 9.90697C14.2616 9.46192 15.0391 9.25522 15.8176 9.3225L17.4976 9.465C18.362 9.5331 19.2193 9.26437 19.8901 8.715L21.4876 7.42502C22.0877 6.93459 22.8389 6.66669 23.6139 6.66669C24.3889 6.66669 25.1401 6.93459 25.7401 7.42502L27.1351 8.595C27.806 9.14977 28.6678 9.4191 29.5351 9.345L31.2976 9.2175C32.0494 9.16875 32.7957 9.37455 33.4162 9.80182C34.0366 10.229 34.495 10.8528 34.7176 11.5725Z" stroke="#37789F" stroke-width="4" stroke-miterlimit="10"/>
<path d="M31.47 16.6424L16.575 31.5449M20.0175 20.8876C21.5791 20.8876 22.845 19.6216 22.845 18.0601C22.845 16.4984 21.5791 15.2326 20.0175 15.2326C18.456 15.2326 17.19 16.4984 17.19 18.0601C17.19 19.6216 18.456 20.8876 20.0175 20.8876ZM28.6425 32.7674C30.2041 32.7674 31.47 31.5015 31.47 29.9399C31.47 28.3783 30.2041 27.1124 28.6425 27.1124C27.081 27.1124 25.815 28.3783 25.815 29.9399C25.815 31.5015 27.081 32.7674 28.6425 32.7674Z" stroke="#37789F" stroke-width="4" stroke-linecap="round" stroke-linejoin="round"/>
</g>
<defs>
<clipPath id="clip0_20_114">
<rect width="48" height="48" fill="white"/>
</clipPath>
</defs>
</svg>
